<svg xmlns="http://www.w3.org/2000/svg" width="1120" height="680" viewBox="0 0 1120 680" role="img" aria-labelledby="title desc"><title id="title">标准化与互操作</title><desc id="desc">展示模型应用、工具协议、资源协议、消息协议、评估协议和安全策略如何实现互操作。</desc><defs><style>.bg{fill:#f7f8fb}.title{font:700 30px system-ui;fill:#172033}.sub{font:400 15px system-ui;fill:#596579}.head{font:700 17px system-ui;fill:#172033}.text{font:400 12.5px system-ui;fill:#435066}.panel{fill:#fff;stroke:#d8e0eb;stroke-width:1.3}.a{fill:#dfe8f5;stroke:#355c9a;stroke-width:2}.b{fill:#e7f1ee;stroke:#2d7d80;stroke-width:2}.c{fill:#fff0e6;stroke:#b05c37;stroke-width:2}.d{fill:#ece7f3;stroke:#7c5aa6;stroke-width:2}.arrow{fill:none;stroke:#94a3b8;stroke-width:2.1;marker-end:url(#arrow)}</style><marker id="arrow" viewBox="0 0 10 10" refX="9" refY="5" markerWidth="7" markerHeight="7" orient="auto-start-reverse"><path d="M0 0 L10 5 L0 10 z" fill="#94a3b8"/></marker></defs><rect class="bg" width="1120" height="680"/><text class="title" x="56" y="58">标准化: 让能力、上下文和评估能复用</text><text class="sub" x="56" y="86">未来 Agent 生态会围绕工具、资源、消息、评估和安全策略形成互操作边界。</text><rect class="a" x="110" y="240" width="170" height="72" rx="8"/><text class="head" x="156" y="268">Model App</text><text class="text" x="144" y="292">Host / Agent</text><rect class="b" x="360" y="160" width="170" height="72" rx="8"/><text class="head" x="406" y="188">Tools</text><text class="text" x="390" y="212">Function / MCP</text><rect class="c" x="360" y="320" width="170" height="72" rx="8"/><text class="head" x="400" y="348">Resources</text><text class="text" x="392" y="372">Docs / Data</text><rect class="d" x="610" y="240" width="170" height="72" rx="8"/><text class="head" x="654" y="268">Messages</text><text class="text" x="642" y="292">Handoff / Trace</text><rect class="panel" x="860" y="240" width="170" height="72" rx="8"/><text class="head" x="904" y="268">Eval</text><text class="text" x="896" y="292">Rubric / Metrics</text><path class="arrow" d="M280 276 L360 196"/><path class="arrow" d="M280 276 L360 356"/><path class="arrow" d="M530 196 L610 250"/><path class="arrow" d="M530 356 L610 302"/><path class="arrow" d="M780 276 H860"/></svg>

